/* XPM */
static const char * centerout_xpm[] = {
"15 15 2 1",
" 	c None",
".	c Black",
"               ",
"               ",
"               ",
" .           . ",
" ..         .. ",
" ...       ... ",
".....  .  .....",
"...... . ......",
".....  .  .....",
" ...       ... ",
" ..         .. ",
" .           . ",
"               ",
"               ",
"               "};
