/* XPM */
static const char * findhex_xpm[] = {
"15 15 2 1",
"   c None",
".  c Black",
"               ",
"               ",
"    .......    ",
"   .........   ",
"   .........   ",
"  ....   ....  ",
" ....     .... ",
" ....     .... ",
" ....     .... ",
"  ....   ....  ",
"   .........   ",
"   .........   ",
"    .......    ",
"               ",
"               "};
