/* XPM */
static const char *icon_logo_xpm[] = {
/* columns rows colors chars-per-pixel */
"32 32 4 2",
"   c None",
" . c #000000",
" & c #ff0000",
" > c #ffffff",
/* pixels */
" & > > > > > > . . . . . . . . . . . . . . . . . . > > > > > > &",
" > & > > > > > . . . . . . . . . . . . . . . . . . > > > > > & >",
" > > & > > > > . . . . . . . . . . . . . . . . . . > > > > & > >",
" > > > & > > > . . . . . . . . . . . . . . . . . . > > > & > > >",
" > > > > & > > . . . . . . . . . . . . . . . . . . > > & > > > >",
" > > > > > & > > . . . . . . . . . . . . . . . . > > & > > > > >",
" > > > > > > & > > . . . . . . . . . . . . . . > > & > > > > > >",
" . . . . . > > & > > . . . . . . . . . . . . > > & > > . . . . .",
" . . . . . . > > & > > . . . . . . . . . . > > & > > . . . . . .",
" . . . . . . . > > & > > . . . . . . . . > > & > > . . . . . . .",
" . . . . . . . . > > & > > > > > > > > > > & > > . . . . . . . .",
" . . . . . . . . . > > & > > > > > > > > & > > . . . . . . . . .",
" . . . . . . . . . . > > & > > > > > > & > > . . . . . . . . . .",
" . . . . . . . . . . > > > & > > > > & > > > . . . . . . . . . .",
" . . . . . . . . . . > > > > & > > & > > > > . . . . . . . . . .",
" . . . . . . . . . . > > > > > & & > > > > > . . . . . . . . . .",
" . . . . . . . . . . > > > > > & & > > > > > . . . . . . . . . .",
" . . . . . . . . . . > > > > & > > & > > > > . . . . . . . . . .",
" . . . . . . . . . . > > > & > > > > & > > > . . . . . . . . . .",
" . . . . . . . . . . > > & > > > > > > & > > . . . . . . . . . .",
" . . . . . . . . . > > & > > > > > > > > & > > . . . . . . . . .",
" . . . . . . . . > > & > > > > > > > > > > & > > . . . . . . . .",
" . . . . . . . > > & > > . . . . . . . . > > & > > . . . . . . .",
" . . . . . . > > & > > . . . . . . . . . . > > & > > . . . . . .",
" . . . . . > > & > > . . . . . . . . . . . . > > & > > . . . . .",
" > > > > > > & > > . . . . . . . . . . . . . . > > & > > > > > >",
" > > > > > & > > . . . . . . . . . . . . . . . . > > & > > > > >",
" > > > > & > > . . . . . . . . . . . . . . . . . . > > & > > > >",
" > > > & > > > . . . . . . . . . . . . . . . . . . > > > & > > >",
" > > & > > > > . . . . . . . . . . . . . . . . . . > > > > & > >",
" > & > > > > > . . . . . . . . . . . . . . . . . . > > > > > & >",
" & > > > > > > . . . . . . . . . . . . . . . . . . > > > > > > &",
};
