/* XPM */
static const char * nextturn_xpm[] = {
"15 15 2 1",
" 	c None",
".	c Black",
"               ",
"               ",
"     .         ",
"     ..        ",
"     ...       ",
"     ....      ",
"     .....     ",
"     ......    ",
"     .....     ",
"     ....      ",
"     ...       ",
"     ..        ",
"     .         ",
"               ",
"               "};
