/* XPM */
static const char * planeup_xpm[] = {
"15 15 2 1",
" 	c None",
".	c Black",
"               ",
"       .       ",
"      ...      ",
"     .....     ",
"    .......    ",
"   .........   ",
"      ...      ",
"      ...      ",
"      ...      ",
"      ...      ",
"      ...      ",
"      ...      ",
"      ...      ",
"               ",
"               "};
