/* XPM */
static const char * shownames_xpm[] = {
"15 15 4 1",
" 	c None",
".	c #000000",
"+	c #A9A9A9",
"@	c #808080",
"               ",
"               ",
"   ..........  ",
"  ..   ..  ..  ",
"  .   +.@   .  ",
"      ..       ",
"      ..       ",
"      ..       ",
"      ..       ",
"      ..       ",
"      .@       ",
"     ..+       ",
"    ....       ",
"               ",
"               "};
